<?xml version="1.0" encoding="iso-8859-1"?>
<!-- Uploaded to: SVG Repo, www.svgrepo.com, Generator: SVG Repo Mixer Tools -->
<!DOCTYPE svg PUBLIC "-//W3C//DTD SVG 1.1//EN" "http://www.w3.org/Graphics/SVG/1.1/DTD/svg11.dtd">
<svg fill="#000000" height="800px" width="800px" version="1.1" id="Capa_1" xmlns="http://www.w3.org/2000/svg" xmlns:xlink="http://www.w3.org/1999/xlink" 
	 viewBox="0 0 395.635 395.635" xml:space="preserve">
<g>
	<g>
		<g>
			<g>
				<g>
					<path d="M132.728,94.179c-2.177,0-4.276-1.188-5.341-3.257c-8.57-16.664-8.813-33.484-0.666-46.148
						c6.501-10.106,17.497-16.063,28.715-15.519c3.311,0.157,5.865,2.969,5.708,6.278c-0.157,3.31-2.968,5.871-6.278,5.708
						c-6.938-0.318-13.862,3.511-18.053,10.024c-3.389,5.268-7.732,16.711,1.246,34.168c1.516,2.946,0.355,6.564-2.592,8.08
						C134.59,93.965,133.652,94.179,132.728,94.179z"/>
				</g>
			</g>
		</g>
		<path d="M259.227,153.884c-2.377-1.852-4.657-2.238-6.213-2.217c49.855-42.772,50.822-81.715,48.052-98.793
			c-4.268-26.307-23.509-47.161-47.878-51.895c-20.849-4.046-41.017,4.578-55.369,23.24C183.465,5.557,163.294-3.068,142.445,0.981
			C118.076,5.715,98.837,26.57,94.569,52.876c-2.771,17.079-1.803,56.02,48.053,98.792c-1.556-0.021-3.838,0.367-6.213,2.217
			c-6.156,4.795-9.148,16.968-9.148,37.216s2.992,32.421,9.148,37.216c2.318,1.806,4.549,2.219,6.102,2.219
			c0.273,0,0.526-0.013,0.755-0.033c4.843-0.029,9.382-0.658,13.617-1.709c-5.71,9.398-11.478,20.084-15.773,30.821
			c-0.966,2.413-0.268,5.174,1.73,6.838l16.147,13.455c1.088,0.907,2.45,1.391,3.841,1.391c0.421,0,0.845-0.044,1.265-0.135
			c1.804-0.389,3.328-1.586,4.134-3.247l13.274-27.368v128.77c0,8.998,7.319,16.318,16.316,16.318
			c8.997,0,16.316-7.32,16.316-16.318V250.547l13.275,27.369c0.805,1.661,2.33,2.858,4.134,3.247
			c0.419,0.091,0.843,0.135,1.265,0.135c1.39,0,2.752-0.483,3.84-1.391l16.148-13.455c1.997-1.664,2.695-4.425,1.73-6.838
			c-4.296-10.738-10.064-21.423-15.773-30.821c4.235,1.051,8.774,1.68,13.617,1.709c0.229,0.021,0.48,0.033,0.754,0.033
			c1.553,0,3.783-0.413,6.104-2.219c6.155-4.795,9.147-16.968,9.147-37.216S265.383,158.679,259.227,153.884z M106.414,54.797
			c3.466-21.363,18.865-38.257,38.319-42.036c18.6-3.61,36.075,5.565,47.953,25.179c1.717,2.833,5.406,3.741,8.241,2.023
			c0.858-0.52,1.536-1.223,2.021-2.025l0.003,0.002c11.877-19.613,29.351-28.791,47.949-25.179
			c19.454,3.778,34.854,20.672,38.32,42.036c3.046,18.779,0.479,67.753-88.157,118.245h-6.494
			C105.934,122.549,103.368,73.578,106.414,54.797z M201.721,197.161h-7.809c-3.34,0-6.058-2.719-6.058-6.061
			c0-3.341,2.718-6.059,6.058-6.059c0,0,8.102,0.004,8.256,0.016c3.146,0.228,5.611,2.882,5.611,6.043
			C207.78,194.442,205.061,197.161,201.721,197.161z M143.471,218.499c-1.021-1.345-4.211-7.169-4.211-27.398
			s3.189-26.054,4.211-27.398c16.366,0.2,28.687,9.032,36.146,16.408c-2.352,3.046-3.763,6.853-3.763,10.99
			c0,4.138,1.413,7.942,3.762,10.991C172.156,209.467,159.837,218.298,143.471,218.499z M160.776,265.778l-6.852-5.709
			c6.609-15.174,16.023-30.047,23.233-40.458c3.813-2.585,7.119-5.363,9.903-8.023L160.776,265.778z M202.134,379.317
			c0,2.381-1.936,4.318-4.316,4.318c-2.381,0-4.316-1.938-4.316-4.318v-153.51l4.316-8.899l4.316,8.898V379.317z M241.711,260.069
			l-6.853,5.709l-26.284-54.19c2.783,2.659,6.088,5.438,9.901,8.022C225.685,230.021,235.1,244.894,241.711,260.069z
			 M252.163,218.499c-16.363-0.2-28.684-9.031-36.145-16.407c2.349-3.049,3.762-6.854,3.762-10.991c0-4.11-1.401-7.934-3.76-10.993
			c7.461-7.376,19.78-16.205,36.143-16.405c1.021,1.345,4.212,7.169,4.212,27.398S253.184,217.154,252.163,218.499z"/>
	</g>
</g>
</svg>